<svg xmlns="http://www.w3.org/2000/svg" viewBox="14 16 72 72" width="512" height="512" shape-rendering="geometricPrecision">
  <defs>
    <radialGradient id="sphereSym" cx="36%" cy="32%" r="82%">
      <stop offset="0%" stop-color="#3bb5a6"></stop>
      <stop offset="42%" stop-color="#1f78a6"></stop>
      <stop offset="82%" stop-color="#13506e"></stop>
      <stop offset="100%" stop-color="#0e3e57"></stop>
    </radialGradient>
    <radialGradient id="sheenSym" cx="34%" cy="28%" r="44%">
      <stop offset="0%" stop-color="#ffffff" stop-opacity="0.4"></stop>
      <stop offset="100%" stop-color="#ffffff" stop-opacity="0"></stop>
    </radialGradient>
    <linearGradient id="satSym" x1="0" y1="0" x2="1" y2="1">
      <stop offset="0%" stop-color="#e4c277"></stop>
      <stop offset="100%" stop-color="#cfa75e"></stop>
    </linearGradient>
    <clipPath id="frontHalfSym"><rect x="0" y="52" width="100" height="60"></rect></clipPath>
  </defs>
  <ellipse cx="50" cy="52" rx="42" ry="14" transform="rotate(-24 50 52)" fill="none" stroke="#2f9e8f" stroke-width="1.6" stroke-opacity="0.5"></ellipse>
  <circle cx="50" cy="52" r="27" fill="url(#sphereSym)"></circle>
  <circle cx="50" cy="52" r="27" fill="url(#sheenSym)"></circle>
  <g fill="none" stroke="#eafcff" stroke-opacity="0.22" stroke-width="1">
    <ellipse cx="50" cy="52" rx="11.3" ry="27"></ellipse>
    <ellipse cx="50" cy="52" rx="22" ry="27"></ellipse>
    <line x1="23" y1="52" x2="77" y2="52"></line>
    <path d="M25 42 Q50 36 75 42"></path>
    <path d="M25 62 Q50 68 75 62"></path>
  </g>
  <circle cx="50" cy="52" r="27" fill="none" stroke="#ffffff" stroke-opacity="0.16" stroke-width="1"></circle>
  <g clip-path="url(#frontHalfSym)">
    <ellipse cx="50" cy="52" rx="42" ry="14" transform="rotate(-24 50 52)" fill="none" stroke="#3bb5a6" stroke-width="2.6"></ellipse>
  </g>
  <g transform="rotate(45 35.8 71.6)">
    <rect x="31.8" y="67.6" width="8" height="8" rx="1.4" fill="url(#satSym)"></rect>
  </g>
</svg>